<?xml version="1.0" encoding="UTF-8"?>
<svg version="1.1" xmlns="http://www.w3.org/2000/svg" width="1024" height="1024">
<path d="M0 0 C337.92 0 675.84 0 1024 0 C1024 337.92 1024 675.84 1024 1024 C686.08 1024 348.16 1024 0 1024 C0 686.08 0 348.16 0 0 Z " fill="#005276" transform="translate(0,0)"/>
<path d="M0 0 C1.31548828 -0.00773438 2.63097656 -0.01546875 3.98632812 -0.0234375 C38.30075111 0.04447823 69.9258395 13.64648978 94.5625 37.25 C95.44421875 38.05695313 96.3259375 38.86390625 97.234375 39.6953125 C113.44491197 55.0357924 123.76323422 75.192725 130.5625 96.25 C130.97757813 97.49652344 131.39265625 98.74304688 131.8203125 100.02734375 C139.22406589 125.22756127 136.7668635 159.57762298 125.5625 183.25 C122.59379657 186.73916646 119.2003254 189.49395395 115.5625 192.25 C114.80678711 192.82331055 114.05107422 193.39662109 113.27246094 193.98730469 C109.81856562 196.59605542 106.36042601 199.19755545 102.87109375 201.75878906 C95.48629704 207.19369991 88.52494497 212.64062627 82.8125 219.875 C82.09578125 220.77476562 81.3790625 221.67453125 80.640625 222.6015625 C79.95484375 223.47554687 79.2690625 224.34953125 78.5625 225.25 C77.23028742 226.91756265 75.89729931 228.58450717 74.5625 230.25 C70.74334612 228.74961812 69.06303617 226.41734582 66.5625 223.25 C65.9025 223.25 65.2425 223.25 64.5625 223.25 C63.11903635 225.15698969 61.83300178 227.04275608 60.5625 229.0625 C60.17457275 229.67109863 59.78664551 230.27969727 59.38696289 230.90673828 C54.28447244 239.07681553 49.93110397 247.67240089 45.5625 256.25 C41.76005289 254.51552432 39.97231689 252.53673525 37.4375 249.1875 C34.95318378 245.6787459 34.95318378 245.6787459 31.5625 243.25 C31.46066406 244.49136719 31.35882812 245.73273438 31.25390625 247.01171875 C28.93526375 267.66981529 21.16099852 292.22319817 7.5625 308.25 C6.88703125 309.12785156 6.2115625 310.00570313 5.515625 310.91015625 C3.5625 313.25 3.5625 313.25 0.5625 315.25 C-0.4275 315.25 -1.4175 315.25 -2.4375 315.25 C-7.70436823 304.83552339 -12.81232621 294.35776581 -17.76708984 283.79125977 C-18.83040772 281.52432168 -19.89744132 279.25915792 -20.96484375 276.99414062 C-21.65125748 275.5339556 -22.33746347 274.07367289 -23.0234375 272.61328125 C-23.33799896 271.94557205 -23.65256042 271.27786285 -23.97665405 270.58992004 C-25.57275203 267.18101757 -27.08304366 263.76225411 -28.4375 260.25 C-29.19933594 260.83007812 -29.19933594 260.83007812 -29.9765625 261.421875 C-30.66492188 261.94265625 -31.35328125 262.4634375 -32.0625 263 C-32.73539062 263.51046875 -33.40828125 264.0209375 -34.1015625 264.546875 C-36.82613705 266.5333541 -39.62235108 268.39474426 -42.4375 270.25 C-43.05008667 269.37263184 -43.05008667 269.37263184 -43.67504883 268.47753906 C-45.5326553 265.81786226 -47.39131666 263.15892434 -49.25 260.5 C-49.89259766 259.57960938 -50.53519531 258.65921875 -51.19726562 257.7109375 C-51.81923828 256.82148438 -52.44121094 255.93203125 -53.08203125 255.015625 C-53.65284424 254.19868164 -54.22365723 253.38173828 -54.81176758 252.54003906 C-56.31835253 250.4178335 -57.87593679 248.33208429 -59.4375 246.25 C-61.7475 249.55 -64.0575 252.85 -66.4375 256.25 C-70.82953893 255.15199027 -71.26374766 254.69620035 -73.8125 251.25 C-74.35648437 250.528125 -74.90046875 249.80625 -75.4609375 249.0625 C-77.10270974 246.7263814 -78.67942591 244.36677545 -80.24609375 241.98046875 C-83.33005706 237.33338758 -86.67322099 232.94036607 -90.125 228.5625 C-90.73585449 227.78068359 -91.34670898 226.99886719 -91.97607422 226.19335938 C-94.75151457 222.64531405 -97.54168661 219.11064291 -100.37109375 215.60546875 C-105.57283413 209.13841502 -110.42967111 202.51421115 -115.0625 195.625 C-115.58408691 194.85414063 -116.10567383 194.08328125 -116.64306641 193.2890625 C-117.12437012 192.56203125 -117.60567383 191.835 -118.1015625 191.0859375 C-118.74279053 190.11986572 -118.74279053 190.11986572 -119.39697266 189.13427734 C-120.4375 187.25 -120.4375 187.25 -121.4375 183.25 C-118.1375 183.25 -114.8375 183.25 -111.4375 183.25 C-111.1075 181.93 -110.7775 180.61 -110.4375 179.25 C-109.26098633 177.35327148 -109.26098633 177.35327148 -107.76953125 175.37109375 C-107.21297852 174.62432373 -106.65642578 173.87755371 -106.08300781 173.1081543 C-105.47811523 172.30933838 -104.87322266 171.51052246 -104.25 170.6875 C-102.96991711 168.97405916 -101.68997314 167.26051453 -100.41015625 165.546875 C-99.75160645 164.66966797 -99.09305664 163.79246094 -98.41455078 162.88867188 C-95.3169349 158.7544372 -92.2512754 154.59684317 -89.1875 150.4375 C-88.61088623 149.65584473 -88.03427246 148.87418945 -87.44018555 148.06884766 C-82.3668137 141.18051119 -77.38078922 134.23211127 -72.4375 127.25 C-69.22225695 128.65844718 -67.11566132 130.35344786 -64.6875 132.875 C-64.07390625 133.50664062 -63.4603125 134.13828125 -62.828125 134.7890625 C-62.36921875 135.27117187 -61.9103125 135.75328125 -61.4375 136.25 C-57.93052905 133.00042141 -55.34381127 129.43687827 -52.6875 125.5 C-52.07068359 124.59701172 -52.07068359 124.59701172 -51.44140625 123.67578125 C-50.43626568 122.20313343 -49.43634522 120.72692498 -48.4375 119.25 C-48.1075 119.91 -47.7775 120.57 -47.4375 121.25 C-48.1784668 123.46142578 -48.1784668 123.46142578 -49.38671875 126.1953125 C-49.82306641 127.19046875 -50.25941406 128.185625 -50.70898438 129.2109375 C-51.17626953 130.25507813 -51.64355469 131.29921875 -52.125 132.375 C-52.57294922 133.3959375 -53.02089844 134.416875 -53.48242188 135.46875 C-55.98790411 141.14346668 -58.61056496 146.72853905 -61.4375 152.25 C-63.09765625 150.81770833 -64.7578125 149.38541667 -66.41796875 147.953125 C-68.72397849 146.00840499 -71.07940101 144.13104656 -73.4375 142.25 C-75.30455602 145.83813303 -77.17010615 149.42704496 -79.03442383 153.01660156 C-79.97077214 154.81874654 -80.90821999 156.6203201 -81.84570312 158.421875 C-86.1251102 166.65781122 -90.30958612 174.9370275 -94.4375 183.25 C-88.81737561 183.2553759 -83.19929605 183.22119161 -77.57958984 183.15234375 C-75.67308483 183.13431838 -73.76645066 183.12659048 -71.85986328 183.12988281 C-60.3321585 183.1419727 -51.25469353 182.9505026 -41.4375 176.25 C-42.11352501 172.51537875 -43.05162193 169.83200052 -45 166.5625 C-47.4375 162.45396601 -47.4375 162.45396601 -47.4375 160.25 C-43.20394081 158.25130443 -38.96807785 156.25760929 -34.72998047 154.26855469 C-33.28792586 153.59089622 -31.84651564 152.91186476 -30.40576172 152.23144531 C-28.33728365 151.25486173 -26.26655454 150.28320497 -24.1953125 149.3125 C-23.54942169 149.00626709 -22.90353088 148.70003418 -22.23806763 148.38452148 C-17.66524341 146.25 -17.66524341 146.25 -15.4375 146.25 C-15.6540625 145.02023437 -15.870625 143.79046875 -16.09375 142.5234375 C-16.37526162 140.89067009 -16.65649704 139.25785503 -16.9375 137.625 C-17.08058594 136.81675781 -17.22367187 136.00851562 -17.37109375 135.17578125 C-17.50644531 134.38300781 -17.64179688 133.59023438 -17.78125 132.7734375 C-17.96977539 131.6894165 -17.96977539 131.6894165 -18.16210938 130.58349609 C-18.48785721 127.82330302 -18.4375 125.02934839 -18.4375 122.25 C-11.5075 118.785 -11.5075 118.785 -4.4375 115.25 C-4.1075 99.41 -3.7775 83.57 -3.4375 67.25 C-2.7775 67.25 -2.1175 67.25 -1.4375 67.25 C-1.4375 67.91 -1.4375 68.57 -1.4375 69.25 C-0.839375 69.518125 -0.24125 69.78625 0.375 70.0625 C5.35387291 72.76531672 6.56306554 76.42427669 8.234375 81.64453125 C8.59971092 82.74869637 8.59971092 82.74869637 8.97242737 83.87516785 C9.76156204 86.26806478 10.53749715 88.66499244 11.3125 91.0625 C11.84863261 92.70266034 12.38533674 94.34263398 12.92260742 95.98242188 C13.98604181 99.23350828 15.04374631 102.48637889 16.09716797 105.74072266 C17.35754392 109.62985645 18.64450947 113.50959074 19.94140625 117.38671875 C20.58662435 119.34091919 21.23121943 121.29532552 21.875 123.25 C22.17051758 124.12503174 22.46603516 125.00006348 22.77050781 125.90161133 C23.02799805 126.69720459 23.28548828 127.49279785 23.55078125 128.3125 C23.77290283 128.98410156 23.99502441 129.65570313 24.22387695 130.34765625 C24.6345536 132.65478849 24.37635107 134.06047443 23.5625 136.25 C21.34765625 138.390625 21.34765625 138.390625 18.625 140.5 C17.72910156 141.20640625 16.83320312 141.9128125 15.91015625 142.640625 C13.5625 144.25 13.5625 144.25 11.5625 144.25 C11.82804688 144.78109375 12.09359375 145.3121875 12.3671875 145.859375 C13.43229167 147.98958333 14.49739583 150.11979167 15.5625 152.25 C16.01625 152.848125 16.47 153.44625 16.9375 154.0625 C17.5625 156.25 17.5625 156.25 16.0078125 159.703125 C15.25055905 160.97849923 14.47636954 162.24393588 13.6875 163.5 C13.29691406 164.1496875 12.90632812 164.799375 12.50390625 165.46875 C11.53772285 167.07120052 10.55193828 168.66180293 9.5625 170.25 C10.26632812 169.53972656 10.97015625 168.82945312 11.6953125 168.09765625 C13.59562189 166.19399416 15.52768555 164.3333273 17.4921875 162.49609375 C18.47401887 161.55995932 19.45578938 160.62376106 20.4375 159.6875 C20.94796875 159.21892578 21.4584375 158.75035156 21.984375 158.26757812 C23.62330168 156.739563 23.62330168 156.739563 25.5625 154.25 C25.64405433 152.163033 25.64405433 152.163033 24.5625 150.25 C24.211875 149.3425 23.86125 148.435 23.5 147.5 C23.190625 146.7575 22.88125 146.015 22.5625 145.25 C23.05878906 144.78851563 23.55507813 144.32703125 24.06640625 143.8515625 C29.77470938 138.37072496 34.99777701 132.37944597 38.5625 125.25 C39.2225 125.25 39.8825 125.25 40.5625 125.25 C41.03300781 126.21421875 41.50351562 127.1784375 41.98828125 128.171875 C42.61697179 129.44802296 43.24589007 130.72405874 43.875 132 C44.18373047 132.63421875 44.49246094 133.2684375 44.81054688 133.921875 C46.15260697 136.6342491 47.44011672 139.09962055 49.35546875 141.453125 C50.5625 143.25 50.5625 143.25 50.50390625 145.203125 C49.25021671 147.92898939 47.53598629 149.80242749 45.5 152 C44.76652344 152.79921875 44.03304687 153.5984375 43.27734375 154.421875 C42.71144531 155.02515625 42.14554688 155.6284375 41.5625 156.25 C42.6842963 158.0436743 43.81004483 159.8348773 44.9375 161.625 C45.56398438 162.62273437 46.19046875 163.62046875 46.8359375 164.6484375 C48.45519712 167.2748019 48.45519712 167.2748019 50.5625 169.25 C50.3253125 168.63253906 50.088125 168.01507813 49.84375 167.37890625 C48.96809707 164.50238637 48.4706922 162.2671381 48.5625 159.25 C50.74975347 155.70996654 53.46195636 153.00456023 56.5625 150.25 C57.779375 150.641875 58.99625 151.03375 60.25 151.4375 C62.31761495 152.19665436 62.31761495 152.19665436 64.5625 152.25 C67.30545608 150.88825802 67.30545608 150.88825802 69.5625 149.25 C70.3875 150.15878906 71.2125 151.06757813 72.0625 152.00390625 C80.2897631 160.98447135 88.87202821 169.44155188 97.86181641 177.65698242 C99.80467948 179.4768477 101.68013094 181.36763094 103.5625 183.25 C52.0825 183.25 0.6025 183.25 -52.4375 183.25 C-52.4375 183.91 -52.4375 184.57 -52.4375 185.25 C-51.59638672 185.63865234 -51.59638672 185.63865234 -50.73828125 186.03515625 C-48.15860117 187.39726237 -45.92991552 188.89644287 -43.625 190.6875 C-42.40876953 191.58275391 -42.40876953 191.58275391 -41.16796875 192.49609375 C-39.4375 195.25 -39.4375 195.25 -40.4375 206.25 C-31.1975 210.87 -21.9575 215.49 -12.4375 220.25 C-12.4375 227.18 -12.4375 234.11 -12.4375 241.25 C-7.4875 243.89 -2.5375 246.53 2.5625 249.25 C2.5625 263.77 2.5625 278.29 2.5625 293.25 C7.30428372 283.76643256 11.19993229 275.28451538 14.25 265.3125 C14.6301123 264.09409424 15.01022461 262.87568848 15.40185547 261.62036133 C16.47100174 258.16809218 17.52034091 254.71049585 18.5625 251.25 C18.82788574 250.38407227 19.09327148 249.51814453 19.36669922 248.62597656 C22.40170969 239.09406323 22.40170969 239.09406323 21.5625 229.25 C19.33781703 226.72584822 19.33781703 226.72584822 16.5 224.8125 C15.58089844 224.13316406 14.66179687 223.45382812 13.71484375 222.75390625 C13.00457031 222.25761719 12.29429687 221.76132812 11.5625 221.25 C12.62125074 217.84687262 13.57152154 215.23646769 15.5625 212.25 C15.14738489 207.53767478 12.93146587 204.19622843 10.5234375 200.23828125 C10.04777344 199.25408203 10.04777344 199.25408203 9.5625 198.25 C9.8925 197.59 10.2225 196.93 10.5625 196.25 C13.16964174 198.18352188 15.77267395 200.12250285 18.375 202.0625 C19.11298828 202.60970703 19.85097656 203.15691406 20.61132812 203.72070312 C21.32353516 204.25244141 22.03574219 204.78417969 22.76953125 205.33203125 C23.4241333 205.81905518 24.07873535 206.3060791 24.75317383 206.80786133 C26.5625 208.25 26.5625 208.25 29.5625 211.25 C27.5825 213.56 25.6025 215.87 23.5625 218.25 C26.45065593 222.22121441 29.74994524 225.23775813 33.45703125 228.40234375 C36.64613064 231.20094117 39.5972315 234.21861509 42.5625 237.25 C43.96291547 234.71963557 45.33205913 232.17931266 46.6875 229.625 C47.08582031 228.91214844 47.48414063 228.19929687 47.89453125 227.46484375 C50.25009779 222.98323538 50.25009779 222.98323538 49.9453125 218.01171875 C49.48898437 217.10035156 49.03265625 216.18898438 48.5625 215.25 C48.18609375 214.46496094 47.8096875 213.67992187 47.421875 212.87109375 C46.67909389 211.40907038 45.92901374 209.95073358 45.171875 208.49609375 C44.32884196 205.38876044 45.08864048 204.07669831 46.5625 201.25 C47.7017389 199.44773984 48.89108753 197.67631194 50.125 195.9375 C50.74503906 195.05449219 51.36507812 194.17148437 52.00390625 193.26171875 C52.51824219 192.59785156 53.03257812 191.93398438 53.5625 191.25 C53.8925 191.25 54.2225 191.25 54.5625 191.25 C54.41742922 192.58341652 54.2713897 193.91672764 54.125 195.25 C54.04121094 196.06984375 53.95742188 196.8896875 53.87109375 197.734375 C53.5625 200.25 53.5625 200.25 53.09765625 202.453125 C52.57622546 204.76542398 52.57622546 204.76542398 52.5625 208.25 C54.83377334 211.27409364 54.83377334 211.27409364 57.5625 213.25 C60.72365776 211.88016497 61.5552092 211.2609362 63.5625 208.25 C66.42947492 209.53519565 68.53857712 210.82129254 70.5625 213.25 C70.5625 213.91 70.5625 214.57 70.5625 215.25 C75.8610761 210.87291539 80.73323901 206.13004118 85.5625 201.25 C90.39376719 196.37331775 95.24548045 191.60353279 100.5625 187.25 C101.60277344 186.19425781 101.60277344 186.19425781 102.6640625 185.1171875 C106.81515826 182.44303147 110.5312202 182.57946544 115.375 182.5 C116.25865234 182.47035156 117.14230469 182.44070313 118.05273438 182.41015625 C120.22217218 182.3397961 122.39233948 182.29259393 124.5625 182.25 C124.5625 181.59 124.5625 180.93 124.5625 180.25 C123.97259277 179.97019287 123.38268555 179.69038574 122.77490234 179.40209961 C120.73124276 178.33787211 119.00019415 177.200238 117.1640625 175.81640625 C116.52686279 175.3380835 115.88966309 174.85976074 115.2331543 174.36694336 C114.55808838 173.85397705 113.88302246 173.34101074 113.1875 172.8125 C112.48214111 172.27826416 111.77678223 171.74402832 111.05004883 171.19360352 C109.59287478 170.08713085 108.13723373 168.97863648 106.68310547 167.86816406 C105.3331592 166.8380646 103.98086739 165.81102646 102.62548828 164.78808594 C91.95107993 156.7277606 82.40237878 148.09524878 74 137.61328125 C72.52989616 135.90593631 72.52989616 135.90593631 69.5625 136.25 C68.758125 137.095625 67.95375 137.94125 67.125 138.8125 C64.5625 141.25 64.5625 141.25 62.5625 141.375 C57.49116352 138.52237323 54.72113832 134.18134928 52.23046875 129.07421875 C51.66005859 127.91728516 51.08964844 126.76035156 50.50195312 125.56835938 C49.91774579 124.35818052 49.33376416 123.14789269 48.75 121.9375 C48.14741915 120.70722401 47.54391166 119.47740141 46.93945312 118.24804688 C45.47130525 115.25302521 44.01272021 112.25373246 42.5625 109.25 C41.9025 109.25 41.2425 109.25 40.5625 109.25 C38.77844614 111.21538392 37.09798618 113.18485752 35.4375 115.25 C34.73560547 116.10851562 34.73560547 116.10851562 34.01953125 116.984375 C32.86186776 118.40192213 31.71149414 119.82541686 30.5625 121.25 C28.16847475 118.85597475 27.72013842 117.12157934 26.70239258 113.90161133 C26.34474319 112.78317337 25.98709381 111.66473541 25.61860657 110.5124054 C25.23528671 109.29788193 24.85196686 108.08335846 24.45703125 106.83203125 C23.84223809 104.92826017 23.22741874 103.02449711 22.6111021 101.12121868 C21.09173601 96.42599724 19.58291278 91.72760061 18.09838867 87.02124023 C17.26588789 84.38405064 16.42203518 81.75101922 15.56559753 79.12150574 C14.76019236 76.6473279 13.97125284 74.16771221 13.2011261 71.68232727 C10.86580803 64.58901555 8.40609949 59.94913651 2.5625 55.25 C1.75941406 54.51910156 0.95632813 53.78820312 0.12890625 53.03515625 C-0.86302734 52.18244141 -0.86302734 52.18244141 -1.875 51.3125 C-2.55433594 50.72597656 -3.23367188 50.13945312 -3.93359375 49.53515625 C-4.42988281 49.11105469 -4.92617188 48.68695313 -5.4375 48.25 C-7.00595075 50.70470157 -8.56724302 53.16352301 -10.125 55.625 C-10.77758789 56.64400391 -10.77758789 56.64400391 -11.44335938 57.68359375 C-17.87429499 67.87781761 -22.20139 78.57436604 -26.25 89.875 C-26.75660652 91.27494053 -27.26376433 92.67468168 -27.77148438 94.07421875 C-28.99984109 97.46387559 -30.22075969 100.85615338 -31.4375 104.25 C-34.69049806 102.68351939 -37.35464728 100.87461834 -40.1875 98.625 C-40.98671875 97.99335938 -41.7859375 97.36171875 -42.609375 96.7109375 C-43.21265625 96.22882813 -43.8159375 95.74671875 -44.4375 95.25 C-48.36885677 99.95011218 -51.75094048 104.99829526 -55.1875 110.0625 C-56.09048828 111.38797852 -56.09048828 111.38797852 -57.01171875 112.74023438 C-58.48878226 114.90893874 -59.96398227 117.07888561 -61.4375 119.25 C-64.61836518 117.74053489 -66.73619906 116.17058175 -69.1875 113.625 C-70.10789062 112.67753906 -70.10789062 112.67753906 -71.046875 111.7109375 C-71.50578125 111.22882813 -71.9646875 110.74671875 -72.4375 110.25 C-75.71719084 113.32889345 -78.31483305 116.69882251 -80.875 120.375 C-81.76380756 121.63447843 -82.65315724 122.89357441 -83.54296875 124.15234375 C-84.0126709 124.81862793 -84.48237305 125.48491211 -84.96630859 126.17138672 C-87.51769856 129.77618828 -90.10182595 133.35724578 -92.6875 136.9375 C-93.49997192 138.06345581 -93.49997192 138.06345581 -94.32885742 139.2121582 C-98.9918069 145.66126598 -103.71949885 152.06158216 -108.4609375 158.453125 C-112.72552864 164.22286595 -116.80325438 170.0934225 -120.765625 176.07421875 C-121.31734375 176.79222656 -121.8690625 177.51023437 -122.4375 178.25 C-123.0975 178.25 -123.7575 178.25 -124.4375 178.25 C-125.40747581 175.00336412 -126.36119087 171.75214982 -127.3125 168.5 C-127.58191406 167.59894531 -127.85132813 166.69789063 -128.12890625 165.76953125 C-137.82927494 132.40972672 -132.7018484 97.19055517 -116.33935547 66.86743164 C-112.33432597 59.75598515 -107.74426916 53.45208297 -102.4375 47.25 C-101.59703125 46.24710937 -100.7565625 45.24421875 -99.890625 44.2109375 C-83.09236247 24.69881954 -60.17968517 11.78156635 -35.6875 4.4375 C-34.71502319 4.14504395 -34.71502319 4.14504395 -33.72290039 3.84667969 C-22.52972742 0.68014404 -11.59852804 -0.06799333 0 0 Z " fill="#69CCEC" transform="translate(514.4375,237.75)"/>
<path d="M0 0 C0.66 0 1.32 0 2 0 C2 0.66 2 1.32 2 2 C2.598125 2.268125 3.19625 2.53625 3.8125 2.8125 C8.79137291 5.51531672 10.00056554 9.17427669 11.671875 14.39453125 C12.03721092 15.49869637 12.03721092 15.49869637 12.40992737 16.62516785 C13.19906204 19.01806478 13.97499715 21.41499244 14.75 23.8125 C15.28613261 25.45266034 15.82283674 27.09263398 16.36010742 28.73242188 C17.42354181 31.98350828 18.48124631 35.23637889 19.53466797 38.49072266 C20.79504392 42.37985645 22.08200947 46.25959074 23.37890625 50.13671875 C24.02412435 52.09091919 24.66871943 54.04532552 25.3125 56 C25.60801758 56.87503174 25.90353516 57.75006348 26.20800781 58.65161133 C26.46549805 59.44720459 26.72298828 60.24279785 26.98828125 61.0625 C27.21040283 61.73410156 27.43252441 62.40570313 27.66137695 63.09765625 C28.0720536 65.40478849 27.81385107 66.81047443 27 69 C24.78515625 71.140625 24.78515625 71.140625 22.0625 73.25 C21.16660156 73.95640625 20.27070312 74.6628125 19.34765625 75.390625 C17 77 17 77 15 77 C15.26554688 77.53109375 15.53109375 78.0621875 15.8046875 78.609375 C17.40234375 81.8046875 17.40234375 81.8046875 19 85 C19.45375 85.598125 19.9075 86.19625 20.375 86.8125 C21 89 21 89 19.4453125 92.453125 C18.68805905 93.72849923 17.91386954 94.99393588 17.125 96.25 C16.73441406 96.8996875 16.34382812 97.549375 15.94140625 98.21875 C14.97522285 99.82120052 13.98943828 101.41180293 13 103 C13.70382812 102.28972656 14.40765625 101.57945312 15.1328125 100.84765625 C17.03312189 98.94399416 18.96518555 97.0833273 20.9296875 95.24609375 C21.91151887 94.30995932 22.89328938 93.37376106 23.875 92.4375 C24.38546875 91.96892578 24.8959375 91.50035156 25.421875 91.01757812 C27.06080168 89.489563 27.06080168 89.489563 29 87 C29.08155433 84.913033 29.08155433 84.913033 28 83 C27.649375 82.0925 27.29875 81.185 26.9375 80.25 C26.628125 79.5075 26.31875 78.765 26 78 C26.49628906 77.53851563 26.99257813 77.07703125 27.50390625 76.6015625 C33.21220938 71.12072496 38.43527701 65.12944597 42 58 C42.66 58 43.32 58 44 58 C44.47050781 58.96421875 44.94101562 59.9284375 45.42578125 60.921875 C46.05447179 62.19802296 46.68339007 63.47405874 47.3125 64.75 C47.62123047 65.38421875 47.92996094 66.0184375 48.24804688 66.671875 C49.59010697 69.3842491 50.87761672 71.84962055 52.79296875 74.203125 C54 76 54 76 53.94140625 77.953125 C52.68771671 80.67898939 50.97348629 82.55242749 48.9375 84.75 C48.20402344 85.54921875 47.47054687 86.3484375 46.71484375 87.171875 C46.14894531 87.77515625 45.58304688 88.3784375 45 89 C46.1217963 90.7936743 47.24754483 92.5848773 48.375 94.375 C49.00148438 95.37273437 49.62796875 96.37046875 50.2734375 97.3984375 C51.89269712 100.0248019 51.89269712 100.0248019 54 102 C53.7628125 101.38253906 53.525625 100.76507813 53.28125 100.12890625 C52.40559707 97.25238637 51.9081922 95.0171381 52 92 C54.18725347 88.45996654 56.89945636 85.75456023 60 83 C61.216875 83.391875 62.43375 83.78375 63.6875 84.1875 C65.75511495 84.94665436 65.75511495 84.94665436 68 85 C70.74295608 83.63825802 70.74295608 83.63825802 73 82 C73.825 82.90878906 74.65 83.81757813 75.5 84.75390625 C83.7272631 93.73447135 92.30952821 102.19155188 101.29931641 110.40698242 C103.24217948 112.2268477 105.11763094 114.11763094 107 116 C55.52 116 4.04 116 -49 116 C-49 116.66 -49 117.32 -49 118 C-48.43925781 118.25910156 -47.87851562 118.51820313 -47.30078125 118.78515625 C-44.72110117 120.14726237 -42.49241552 121.64644287 -40.1875 123.4375 C-38.97126953 124.33275391 -38.97126953 124.33275391 -37.73046875 125.24609375 C-36 128 -36 128 -37 139 C-27.76 143.62 -18.52 148.24 -9 153 C-9 159.93 -9 166.86 -9 174 C-4.05 176.64 0.9 179.28 6 182 C6 196.52 6 211.04 6 226 C10.74178372 216.51643256 14.63743229 208.03451538 17.6875 198.0625 C18.0676123 196.84409424 18.44772461 195.62568848 18.83935547 194.37036133 C19.90850174 190.91809218 20.95784091 187.46049585 22 184 C22.26538574 183.13407227 22.53077148 182.26814453 22.80419922 181.37597656 C25.83920969 171.84406323 25.83920969 171.84406323 25 162 C22.77531703 159.47584822 22.77531703 159.47584822 19.9375 157.5625 C19.01839844 156.88316406 18.09929687 156.20382812 17.15234375 155.50390625 C16.44207031 155.00761719 15.73179687 154.51132812 15 154 C16.05875074 150.59687262 17.00902154 147.98646769 19 145 C18.58488489 140.28767478 16.36896587 136.94622843 13.9609375 132.98828125 C13.48527344 132.00408203 13.48527344 132.00408203 13 131 C13.33 130.34 13.66 129.68 14 129 C16.60714174 130.93352188 19.21017395 132.87250285 21.8125 134.8125 C22.55048828 135.35970703 23.28847656 135.90691406 24.04882812 136.47070312 C24.76103516 137.00244141 25.47324219 137.53417969 26.20703125 138.08203125 C26.8616333 138.56905518 27.51623535 139.0560791 28.19067383 139.55786133 C30 141 30 141 33 144 C31.02 146.31 29.04 148.62 27 151 C29.88815593 154.97121441 33.18744524 157.98775813 36.89453125 161.15234375 C40.08363064 163.95094117 43.0347315 166.96861509 46 170 C47.40041547 167.46963557 48.76955913 164.92931266 50.125 162.375 C50.52332031 161.66214844 50.92164063 160.94929687 51.33203125 160.21484375 C53.68759779 155.73323538 53.68759779 155.73323538 53.3828125 150.76171875 C52.92648437 149.85035156 52.47015625 148.93898438 52 148 C51.62359375 147.21496094 51.2471875 146.42992187 50.859375 145.62109375 C50.11659389 144.15907038 49.36651374 142.70073358 48.609375 141.24609375 C47.76634196 138.13876044 48.52614048 136.82669831 50 134 C51.1392389 132.19773984 52.32858753 130.42631194 53.5625 128.6875 C54.18253906 127.80449219 54.80257812 126.92148437 55.44140625 126.01171875 C55.95574219 125.34785156 56.47007812 124.68398438 57 124 C57.33 124 57.66 124 58 124 C57.85492922 125.33341652 57.7088897 126.66672764 57.5625 128 C57.47871094 128.81984375 57.39492188 129.6396875 57.30859375 130.484375 C57 133 57 133 56.53515625 135.203125 C56.01372546 137.51542398 56.01372546 137.51542398 56 141 C58.27127334 144.02409364 58.27127334 144.02409364 61 146 C64.16115776 144.63016497 64.9927092 144.0109362 67 141 C69.86697492 142.28519565 71.97607712 143.57129254 74 146 C74 146.66 74 147.32 74 148 C79.2985761 143.62291539 84.17073901 138.88004118 89 134 C93.83126719 129.12331775 98.68298045 124.35353279 104 120 C104.74121094 119.29488281 105.48242188 118.58976562 106.24609375 117.86328125 C109.79008116 115.46543445 112.25188315 115.43569539 116.5 115.3125 C120.78912776 115.16238053 124.81643985 114.98957288 129 114 C127.45496777 117.98213664 124.70943953 120.28502256 121.5 122.9375 C120.93756592 123.41058594 120.37513184 123.88367188 119.7956543 124.37109375 C114.98312457 128.34798449 109.9222564 131.91902144 104.8125 135.5 C97.48365189 140.672766 91.62929731 145.96337836 86 153 C85.21625 153.9590625 84.4325 154.918125 83.625 155.90625 C81.72615379 158.2534349 79.85168916 160.61556229 78 163 C74.23610892 161.31491069 72.54842584 159.22800606 70 156 C69.34 156 68.68 156 68 156 C66.55653635 157.90698969 65.27050178 159.79275608 64 161.8125 C63.61207275 162.42109863 63.22414551 163.02969727 62.82446289 163.65673828 C57.72197244 171.82681553 53.36860397 180.42240089 49 189 C45.19755289 187.26552432 43.40981689 185.28673525 40.875 181.9375 C38.39068378 178.4287459 38.39068378 178.4287459 35 176 C34.89816406 177.24136719 34.79632812 178.48273438 34.69140625 179.76171875 C32.37276375 200.41981529 24.59849852 224.97319817 11 241 C10.32453125 241.87785156 9.6490625 242.75570312 8.953125 243.66015625 C7 246 7 246 4 248 C3.01 248 2.02 248 1 248 C-4.26686823 237.58552339 -9.37482621 227.10776581 -14.32958984 216.54125977 C-15.39290772 214.27432168 -16.45994132 212.00915792 -17.52734375 209.74414062 C-18.21375748 208.2839556 -18.89996347 206.82367289 -19.5859375 205.36328125 C-19.90049896 204.69557205 -20.21506042 204.02786285 -20.53915405 203.33992004 C-22.13525203 199.93101757 -23.64554366 196.51225411 -25 193 C-25.76183594 193.58007812 -25.76183594 193.58007812 -26.5390625 194.171875 C-27.22742188 194.69265625 -27.91578125 195.2134375 -28.625 195.75 C-29.29789062 196.26046875 -29.97078125 196.7709375 -30.6640625 197.296875 C-33.38863705 199.2833541 -36.18485108 201.14474426 -39 203 C-39.40839111 202.41508789 -39.81678223 201.83017578 -40.23754883 201.22753906 C-42.0951553 198.56786226 -43.95381666 195.90892434 -45.8125 193.25 C-46.45509766 192.32960938 -47.09769531 191.40921875 -47.75976562 190.4609375 C-48.38173828 189.57148438 -49.00371094 188.68203125 -49.64453125 187.765625 C-50.21534424 186.94868164 -50.78615723 186.13173828 -51.37426758 185.29003906 C-52.88085253 183.1678335 -54.43843679 181.08208429 -56 179 C-58.31 182.3 -60.62 185.6 -63 189 C-67.39203893 187.90199027 -67.82624766 187.44620035 -70.375 184 C-70.91898437 183.278125 -71.46296875 182.55625 -72.0234375 181.8125 C-73.66520974 179.4763814 -75.24192591 177.11677545 -76.80859375 174.73046875 C-79.89255706 170.08338758 -83.23572099 165.69036607 -86.6875 161.3125 C-87.29835449 160.53068359 -87.90920898 159.74886719 -88.53857422 158.94335938 C-91.31401457 155.39531405 -94.10418661 151.86064291 -96.93359375 148.35546875 C-102.13533413 141.88841502 -106.99217111 135.26421115 -111.625 128.375 C-112.14658691 127.60414063 -112.66817383 126.83328125 -113.20556641 126.0390625 C-113.68687012 125.31203125 -114.16817383 124.585 -114.6640625 123.8359375 C-115.09154785 123.19188965 -115.5190332 122.5478418 -115.95947266 121.88427734 C-117 120 -117 120 -118 116 C-114.7 116 -111.4 116 -108 116 C-107.67 114.68 -107.34 113.36 -107 112 C-105.82348633 110.10327148 -105.82348633 110.10327148 -104.33203125 108.12109375 C-103.77547852 107.37432373 -103.21892578 106.62755371 -102.64550781 105.8581543 C-102.04061523 105.05933838 -101.43572266 104.26052246 -100.8125 103.4375 C-99.53241711 101.72405916 -98.25247314 100.01051453 -96.97265625 98.296875 C-96.31410645 97.41966797 -95.65555664 96.54246094 -94.97705078 95.63867188 C-91.8794349 91.5044372 -88.8137754 87.34684317 -85.75 83.1875 C-85.17338623 82.40584473 -84.59677246 81.62418945 -84.00268555 80.81884766 C-78.9293137 73.93051119 -73.94328922 66.98211127 -69 60 C-65.78475695 61.40844718 -63.67816132 63.10344786 -61.25 65.625 C-60.32960938 66.57246094 -60.32960938 66.57246094 -59.390625 67.5390625 C-58.93171875 68.02117187 -58.4728125 68.50328125 -58 69 C-54.49302905 65.75042141 -51.90631127 62.18687827 -49.25 58.25 C-48.63318359 57.34701172 -48.63318359 57.34701172 -48.00390625 56.42578125 C-46.99876568 54.95313343 -45.99884522 53.47692498 -45 52 C-44.67 52.66 -44.34 53.32 -44 54 C-44.7409668 56.21142578 -44.7409668 56.21142578 -45.94921875 58.9453125 C-46.38556641 59.94046875 -46.82191406 60.935625 -47.27148438 61.9609375 C-47.97241211 63.52714844 -47.97241211 63.52714844 -48.6875 65.125 C-49.13544922 66.1459375 -49.58339844 67.166875 -50.04492188 68.21875 C-52.55040411 73.89346668 -55.17306496 79.47853905 -58 85 C-59.66015625 83.56770833 -61.3203125 82.13541667 -62.98046875 80.703125 C-65.28647849 78.75840499 -67.64190101 76.88104656 -70 75 C-71.86705602 78.58813303 -73.73260615 82.17704496 -75.59692383 85.76660156 C-76.53327214 87.56874654 -77.47071999 89.3703201 -78.40820312 91.171875 C-82.6876102 99.40781122 -86.87208612 107.6870275 -91 116 C-85.37987561 116.0053759 -79.76179605 115.97119161 -74.14208984 115.90234375 C-72.23558483 115.88431838 -70.32895066 115.87659048 -68.42236328 115.87988281 C-56.8946585 115.8919727 -47.81719353 115.7005026 -38 109 C-38.67602501 105.26537875 -39.61412193 102.58200052 -41.5625 99.3125 C-44 95.20396601 -44 95.20396601 -44 93 C-39.76644081 91.00130443 -35.53057785 89.00760929 -31.29248047 87.01855469 C-29.85042586 86.34089622 -28.40901564 85.66186476 -26.96826172 84.98144531 C-24.89978365 84.00486173 -22.82905454 83.03320497 -20.7578125 82.0625 C-20.11192169 81.75626709 -19.46603088 81.45003418 -18.80056763 81.13452148 C-14.22774341 79 -14.22774341 79 -12 79 C-12.2165625 77.77023437 -12.433125 76.54046875 -12.65625 75.2734375 C-12.93776162 73.64067009 -13.21899704 72.00785503 -13.5 70.375 C-13.64308594 69.56675781 -13.78617187 68.75851562 -13.93359375 67.92578125 C-14.06894531 67.13300781 -14.20429688 66.34023438 -14.34375 65.5234375 C-14.53227539 64.4394165 -14.53227539 64.4394165 -14.72460938 63.33349609 C-15.05035721 60.57330302 -15 57.77934839 -15 55 C-10.38 52.69 -5.76 50.38 -1 48 C-0.67 32.16 -0.34 16.32 0 0 Z " fill="#33ACD9" transform="translate(511,305)"/>
<path d="M0 0 C0.68400879 0.58769165 0.68400879 0.58769165 1.38183594 1.18725586 C4.02010054 3.45175472 6.65783607 5.71467203 9.328125 7.94140625 C9.96234375 8.47636719 10.5965625 9.01132812 11.25 9.5625 C12.21679688 10.36880859 12.21679688 10.36880859 13.203125 11.19140625 C16.71307403 14.72424625 18.45017098 18.85264544 19.99291992 23.5246582 C20.53314034 25.14577263 20.53314034 25.14577263 21.08427429 26.79963684 C21.46251846 27.9550145 21.84076263 29.11039215 22.23046875 30.30078125 C22.62575272 31.49229294 23.02103668 32.68380463 23.42829895 33.91142273 C24.47323203 37.06477926 25.51293267 40.21976219 26.55010986 43.37567139 C27.61169968 46.60150973 28.68016853 49.82506727 29.74804688 53.04882812 C31.83835568 59.3638096 33.92179234 65.6810265 36 72 C36.66 72 37.32 72 38 72 C39.55726398 70.23645665 41.04760233 68.41336392 42.5 66.5625 C46.79578947 61.10210526 46.79578947 61.10210526 49 60 C49.43344727 60.89307861 49.86689453 61.78615723 50.31347656 62.70629883 C51.92838742 66.02680295 53.55664684 69.34061088 55.18896484 72.65258789 C55.89280611 74.08537291 56.5930426 75.51993473 57.28955078 76.95629883 C58.29291319 79.02385517 59.30918144 81.08461793 60.328125 83.14453125 C60.63558655 83.78526077 60.9430481 84.4259903 61.25982666 85.08613586 C63.01484036 88.59837249 64.54543581 91.03904782 68 93 C72.18179813 93 75.04545517 89.6188011 78 87 C81.92676842 90.83497384 85.77823107 94.6716219 89.3125 98.875 C99.11066305 110.16705338 111.34196693 118.86719457 123.46875 127.46875 C124.4690625 128.1803125 125.469375 128.891875 126.5 129.625 C127.3765625 130.23601562 128.253125 130.84703125 129.15625 131.4765625 C129.7646875 131.97929687 130.373125 132.48203125 131 133 C131 133.66 131 134.32 131 135 C127.27570053 136.19776465 123.76085186 136 119.875 136 C112.80804101 136.27275683 109.16277877 138.41072813 104.3125 143.484375 C103.549375 144.31453125 102.78625 145.1446875 102 146 C100.41027033 147.43284846 98.80582379 148.84952749 97.1875 150.25 C92.35044083 154.57951401 87.79576413 159.16496288 83.28979492 163.83496094 C81.89598376 165.25956634 80.45188948 166.634633 79 168 C78.34 168 77.68 168 77 168 C75.31267723 166.01739574 73.64633943 164.0167658 72 162 C71.34 161.67 70.68 161.34 70 161 C69.7525 161.61875 69.505 162.2375 69.25 162.875 C67.79371361 165.35068687 66.62187494 165.95125002 64 167 C59.59585492 164.18134715 59.59585492 164.18134715 58 161 C58.06466176 155.53608147 58.94495442 150.35149624 60 145 C54.27341604 151.57309882 54.27341604 151.57309882 52.03125 159.58984375 C52.82361371 161.90750762 53.75487884 163.89254831 55 166 C58.12735466 171.4998306 58.12735466 171.4998306 57.30078125 174.74609375 C55.88683944 178.28307131 54.21302345 181.53932781 52.375 184.875 C51.74335937 186.02742187 51.11171875 187.17984375 50.4609375 188.3671875 C49.97882813 189.23601562 49.49671875 190.10484375 49 191 C46.66124342 188.66528971 44.32403142 186.32974962 42.0078125 183.97265625 C37.84131755 179.74565203 33.55973526 175.79977938 29 172 C31 169 33 166 35 163 C26.585 157.06 26.585 157.06 18 151 C18.83302689 154.33210757 19.34712051 155.74581531 21.125 158.4375 C22.48979241 160.78354826 23 161.73307367 23 164.5 C21.64297826 167.89255434 19.89862691 170.87645251 18 174 C18.58394531 174.27457031 19.16789063 174.54914063 19.76953125 174.83203125 C21.93881462 175.96796072 23.7696462 177.16902573 25.6875 178.6875 C26.59048828 179.37392578 26.59048828 179.37392578 27.51171875 180.07421875 C29.71079576 182.91974359 30.11869635 185.49905327 30 189 C29.29344413 192.91714574 28.1990938 196.68820227 27.0625 200.5 C26.74619629 201.58990234 26.42989258 202.67980469 26.10400391 203.80273438 C23.85628579 211.42189427 21.43974383 218.98185909 18.875 226.5 C18.56312744 227.42361328 18.25125488 228.34722656 17.92993164 229.29882812 C12.50374702 244.74812649 12.50374702 244.74812649 8 247 C8 232.15 8 217.3 8 202 C3.05 199.36 -1.9 196.72 -7 194 C-6.67 187.07 -6.34 180.14 -6 173 C-7.98 172.34 -9.96 171.68 -12 171 C-15.82873734 169.32673351 -19.56450794 167.47106219 -23.3125 165.625 C-24.83327148 164.90183594 -24.83327148 164.90183594 -26.38476562 164.1640625 C-27.34705078 163.6896875 -28.30933594 163.2153125 -29.30078125 162.7265625 C-30.17903564 162.29939941 -31.05729004 161.87223633 -31.9621582 161.43212891 C-34 160 -34 160 -34.86010742 158.06005859 C-35 156 -35 156 -33.9375 152.3125 C-33.47960456 150.20635413 -33.47960456 150.20635413 -34 148 C-37.33725166 144.02529578 -41.3275776 140.3362112 -46 138 C-46 137.34 -46 136.68 -46 136 C5.15 135.67 56.3 135.34 109 135 C102.58801233 129.221137 102.58801233 129.221137 96.15234375 123.46875 C90.56460194 118.50186839 85.2389437 113.33175963 80 108 C78.98035853 106.97797619 77.95976809 105.95689655 76.9375 104.9375 C76.298125 104.298125 75.65875 103.65875 75 103 C74.505 103.53625 74.01 104.0725 73.5 104.625 C70.54879737 106.24816144 69.89970418 105.99726437 66.75 105.1875 C65.5125 104.795625 64.275 104.40375 63 104 C60.05991035 106.37358457 57.80170649 108.65820468 56 112 C55.97422406 116.52110029 56.83789904 120.64378153 58 125 C55.13865759 121.53726925 52.63425466 117.99313724 50.25 114.1875 C49.32960938 112.72376953 49.32960938 112.72376953 48.390625 111.23046875 C47.93171875 110.49441406 47.4728125 109.75835937 47 109 C47.66128906 108.32453125 48.32257813 107.6490625 49.00390625 106.953125 C50.27041016 105.61507812 50.27041016 105.61507812 51.5625 104.25 C52.40941406 103.36828125 53.25632812 102.4865625 54.12890625 101.578125 C56.17593289 99.27632418 56.17593289 99.27632418 56.03125 97.11328125 C54.16782221 93.29466596 51.98851644 89.67841441 49.79492188 86.04492188 C47 81.30922242 47 81.30922242 47 78 C46.34 78 45.68 78 45 78 C44.74863281 78.721875 44.49726562 79.44375 44.23828125 80.1875 C41.2189281 87.04533682 35.4324411 92.90708647 30 98 C30.309375 98.7425 30.61875 99.485 30.9375 100.25 C32.74212302 104.920789 32.74212302 104.920789 33 107 C31.86010742 108.69165039 31.86010742 108.69165039 30.10546875 110.34765625 C29.47962891 110.95287109 28.85378906 111.55808594 28.20898438 112.18164062 C27.20834961 113.11266602 27.20834961 113.11266602 26.1875 114.0625 C24.88733395 115.30130128 23.58907837 116.54211151 22.29296875 117.78515625 C21.7105542 118.33051025 21.12813965 118.87586426 20.52807617 119.43774414 C18.78184077 121.12654118 18.78184077 121.12654118 17 124 C16.34 123.67 15.68 123.34 15 123 C15.60070312 122.03578125 16.20140625 121.0715625 16.8203125 120.078125 C17.58938442 118.80259108 18.35756769 117.52652107 19.125 116.25 C19.72248047 115.29867187 19.72248047 115.29867187 20.33203125 114.328125 C21.6183422 112.2418127 21.6183422 112.2418127 23 109 C22.48999404 106.67127145 22.48999404 106.67127145 21 105 C18 100.26923077 18 100.26923077 18 97 C19.96876633 95.30369687 21.88673162 93.80463882 24 92.3125 C24.57234375 91.89677734 25.1446875 91.48105469 25.734375 91.05273438 C27.14996532 90.02643139 28.57419631 89.01206601 30 88 C28.43331993 78.41730046 25.30805975 69.47461403 22.1875 60.3125 C21.39838551 57.97527354 20.61096606 55.6374824 19.82400513 53.29953003 C19.30520305 51.76428698 18.78298835 50.23019274 18.2572937 48.69729614 C17.00710136 45.04493551 15.80290356 41.39156276 14.70947266 37.68896484 C14.50252274 37.00964401 14.29557281 36.33032318 14.08235168 35.63041687 C13.52816982 33.79973637 12.9943598 31.96292324 12.4621582 30.12573242 C10.60004305 26.14499101 8.44164424 24.67184552 5 22 C5 21.34 5 20.68 5 20 C4.34 20 3.68 20 3 20 C3 35.84 3 51.68 3 68 C-3.93 71.465 -3.93 71.465 -11 75 C-10.855625 76.711875 -10.71125 78.42375 -10.5625 80.1875 C-10.48128906 81.15042969 -10.40007812 82.11335938 -10.31640625 83.10546875 C-10.06329532 85.92814919 -10.06329532 85.92814919 -9.46484375 88.36328125 C-8.83394974 91.94188175 -8.9724673 95.36545259 -9 99 C-13.23355919 100.99869557 -17.46942215 102.99239071 -21.70751953 104.98144531 C-23.14957414 105.65910378 -24.59098436 106.33813524 -26.03173828 107.01855469 C-28.10021635 107.99513827 -30.17094546 108.96679503 -32.2421875 109.9375 C-32.88807831 110.24373291 -33.53396912 110.54996582 -34.19943237 110.86547852 C-38.77225659 113 -38.77225659 113 -41 113 C-40.48308594 113.89203125 -39.96617187 114.7840625 -39.43359375 115.703125 C-38.7675859 116.88505442 -38.10225659 118.06736637 -37.4375 119.25 C-37.09525391 119.83652344 -36.75300781 120.42304688 -36.40039062 121.02734375 C-33.96591438 125.40448285 -33.96591438 125.40448285 -34.11450195 128.00048828 C-35.82503104 131.86297332 -39.36065157 133.05055582 -43.02929688 134.77832031 C-50.96297094 137.624663 -59.96488874 136.60247931 -68.25 136.375 C-70.17053083 136.34484478 -72.09110758 136.31747885 -74.01171875 136.29296875 C-78.67563094 136.22745426 -83.33729792 136.12424527 -88 136 C-86.60333644 131.47139811 -84.78991528 127.28600955 -82.6640625 123.0625 C-82.34343842 122.41933838 -82.02281433 121.77617676 -81.69247437 121.11352539 C-81.01700034 119.76122356 -80.33952787 118.40991827 -79.66015625 117.05957031 C-78.6294213 115.00879673 -77.60728013 112.95390182 -76.5859375 110.8984375 C-75.92499188 109.57786826 -75.2635498 108.25754736 -74.6015625 106.9375 C-74.30037506 106.33107666 -73.99918762 105.72465332 -73.68887329 105.09985352 C-71.7088686 101.18236645 -69.49091591 97.6017205 -67 94 C-65.91481889 94.91447846 -64.83195262 95.83170407 -63.75 96.75 C-63.14671875 97.26046875 -62.5434375 97.7709375 -61.921875 98.296875 C-59.8631357 100.12128625 -57.92758032 102.03830322 -56 104 C-50.74065276 93.84171765 -46.10768056 83.67996946 -42 73 C-45.96 78.61 -49.92 84.22 -54 90 C-61 84 -61 84 -64 81 C-64.66 81 -65.32 81 -66 81 C-67.83325606 83.40230367 -69.55224484 85.81633074 -71.25 88.3125 C-72.33679916 89.88141681 -73.4254103 91.44907967 -74.515625 93.015625 C-75.08603516 93.83611328 -75.65644531 94.65660156 -76.24414062 95.50195312 C-79.10163064 99.56728096 -82.04619611 103.56685214 -85 107.5625 C-85.57999756 108.34858643 -86.15999512 109.13467285 -86.75756836 109.94458008 C-89.65629929 113.86401932 -92.57448311 117.76757921 -95.51953125 121.65234375 C-96.07447266 122.38573975 -96.62941406 123.11913574 -97.20117188 123.87475586 C-98.24944906 125.25736994 -99.30134788 126.63724813 -100.35742188 128.01391602 C-102.3662281 130.66141426 -103.94114178 132.82342533 -105 136 C-106.79258558 135.91306859 -108.58415144 135.80489496 -110.375 135.6875 C-111.37273437 135.62949219 -112.37046875 135.57148438 -113.3984375 135.51171875 C-114.25695312 135.34285156 -115.11546875 135.17398438 -116 135 C-116.66 134.01 -117.32 133.02 -118 132 C-117.34 132 -116.68 132 -116 132 C-115.88551514 131.41549072 -115.77103027 130.83098145 -115.65307617 130.22875977 C-114.94806321 127.8227548 -114.03135158 126.35287899 -112.55078125 124.33984375 C-111.78374878 123.28748535 -111.78374878 123.28748535 -111.0012207 122.21386719 C-110.44394287 121.46266602 -109.88666504 120.71146484 -109.3125 119.9375 C-108.7352417 119.14891602 -108.1579834 118.36033203 -107.56323242 117.54785156 C-105.71538603 115.02699796 -103.85853419 112.51298165 -102 110 C-100.7914256 108.3608548 -99.5830892 106.72153409 -98.375 105.08203125 C-96.59422986 102.66607111 -94.81289913 100.25054017 -93.02929688 97.83666992 C-89.181806 92.62482439 -85.3884307 87.3784788 -81.63842773 82.09619141 C-76.83631631 75.34106815 -71.91571378 68.6726609 -67 62 C-65.8944811 62.93590504 -64.79064547 63.87379858 -63.6875 64.8125 C-63.07261719 65.33457031 -62.45773437 65.85664063 -61.82421875 66.39453125 C-60 68 -60 68 -58.39453125 69.69921875 C-57.07408452 71.22736643 -57.07408452 71.22736643 -55 71 C-53.18794251 68.70294949 -53.18794251 68.70294949 -51.3046875 65.75 C-50.58925781 64.6671875 -49.87382812 63.584375 -49.13671875 62.46875 C-48.38266335 61.31259726 -47.62875907 60.15634595 -46.875 59 C-46.11391537 57.8433325 -45.35220455 56.68707677 -44.58984375 55.53125 C-42.72034394 52.69150346 -40.85741598 49.84765916 -39 47 C-35.53612882 49.04603025 -32.34428654 51.1903405 -29.1875 53.6875 C-28.39730469 54.31011719 -27.60710937 54.93273437 -26.79296875 55.57421875 C-26.20128906 56.04472656 -25.60960937 56.51523437 -25 57 C-24.63841797 55.14955078 -24.63841797 55.14955078 -24.26953125 53.26171875 C-19.95768424 33.99561944 -10.59934853 16.46175366 0 0 Z " fill="#004C6E" transform="translate(508,285)"/>
<path d="M0 0 C0.66 0 1.32 0 2 0 C2 0.66 2 1.32 2 2 C2.598125 2.268125 3.19625 2.53625 3.8125 2.8125 C8.79137291 5.51531672 10.00056554 9.17427669 11.671875 14.39453125 C11.91543228 15.13064133 12.15898956 15.8667514 12.40992737 16.62516785 C13.19906204 19.01806478 13.97499715 21.41499244 14.75 23.8125 C15.28613261 25.45266034 15.82283674 27.09263398 16.36010742 28.73242188 C17.42354181 31.98350828 18.48124631 35.23637889 19.53466797 38.49072266 C20.79504392 42.37985645 22.08200947 46.25959074 23.37890625 50.13671875 C24.02412435 52.09091919 24.66871943 54.04532552 25.3125 56 C25.60801758 56.87503174 25.90353516 57.75006348 26.20800781 58.65161133 C26.59424316 59.84500122 26.59424316 59.84500122 26.98828125 61.0625 C27.32146362 62.06990234 27.32146362 62.06990234 27.66137695 63.09765625 C28.0720536 65.40478849 27.81385107 66.81047443 27 69 C24.78515625 71.140625 24.78515625 71.140625 22.0625 73.25 C21.16660156 73.95640625 20.27070312 74.6628125 19.34765625 75.390625 C17 77 17 77 15 77 C15.26554688 77.53109375 15.53109375 78.0621875 15.8046875 78.609375 C16.86979167 80.73958333 17.93489583 82.86979167 19 85 C19.45375 85.598125 19.9075 86.19625 20.375 86.8125 C21 89 21 89 19.4453125 92.453125 C18.68805905 93.72849923 17.91386954 94.99393588 17.125 96.25 C16.73441406 96.8996875 16.34382812 97.549375 15.94140625 98.21875 C14.97522285 99.82120052 13.98943828 101.41180293 13 103 C13.70382812 102.28972656 14.40765625 101.57945312 15.1328125 100.84765625 C17.03312189 98.94399416 18.96518555 97.0833273 20.9296875 95.24609375 C21.91151887 94.30995932 22.89328938 93.37376106 23.875 92.4375 C24.38546875 91.96892578 24.8959375 91.50035156 25.421875 91.01757812 C27.06080168 89.489563 27.06080168 89.489563 29 87 C29.08155433 84.913033 29.08155433 84.913033 28 83 C27.649375 82.0925 27.29875 81.185 26.9375 80.25 C26.4734375 79.13625 26.4734375 79.13625 26 78 C26.49628906 77.53851563 26.99257813 77.07703125 27.50390625 76.6015625 C33.21220938 71.12072496 38.43527701 65.12944597 42 58 C42.66 58 43.32 58 44 58 C44.47050781 58.96421875 44.94101562 59.9284375 45.42578125 60.921875 C46.05447179 62.19802296 46.68339007 63.47405874 47.3125 64.75 C47.7755957 65.70132813 47.7755957 65.70132813 48.24804688 66.671875 C49.59010697 69.3842491 50.87761672 71.84962055 52.79296875 74.203125 C54 76 54 76 53.94140625 77.953125 C52.68771671 80.67898939 50.97348629 82.55242749 48.9375 84.75 C48.20402344 85.54921875 47.47054687 86.3484375 46.71484375 87.171875 C45.86599609 88.07679688 45.86599609 88.07679688 45 89 C46.1217963 90.7936743 47.24754483 92.5848773 48.375 94.375 C49.00148438 95.37273437 49.62796875 96.37046875 50.2734375 97.3984375 C51.89269712 100.0248019 51.89269712 100.0248019 54 102 C53.7628125 101.38253906 53.525625 100.76507813 53.28125 100.12890625 C52.40559707 97.25238637 51.9081922 95.0171381 52 92 C54.18725347 88.45996654 56.89945636 85.75456023 60 83 C61.216875 83.391875 62.43375 83.78375 63.6875 84.1875 C65.75511495 84.94665436 65.75511495 84.94665436 68 85 C70.74295608 83.63825802 70.74295608 83.63825802 73 82 C73.825 82.90878906 74.65 83.81757813 75.5 84.75390625 C83.7272631 93.73447135 92.30952821 102.19155188 101.29931641 110.40698242 C103.24217948 112.2268477 105.11763094 114.11763094 107 116 C31.76 115.505 31.76 115.505 -45 115 C-45.33 114.34 -45.66 113.68 -46 113 C-43.36 111.68 -40.72 110.36 -38 109 C-38.57614466 105.25837091 -39.62901096 102.55701579 -41.5625 99.3125 C-44 95.20396601 -44 95.20396601 -44 93 C-39.76644081 91.00130443 -35.53057785 89.00760929 -31.29248047 87.01855469 C-29.85042586 86.34089622 -28.40901564 85.66186476 -26.96826172 84.98144531 C-24.89978365 84.00486173 -22.82905454 83.03320497 -20.7578125 82.0625 C-20.11192169 81.75626709 -19.46603088 81.45003418 -18.80056763 81.13452148 C-14.22774341 79 -14.22774341 79 -12 79 C-12.2165625 77.77023437 -12.433125 76.54046875 -12.65625 75.2734375 C-12.93776162 73.64067009 -13.21899704 72.00785503 -13.5 70.375 C-13.64308594 69.56675781 -13.78617187 68.75851562 -13.93359375 67.92578125 C-14.06894531 67.13300781 -14.20429688 66.34023438 -14.34375 65.5234375 C-14.46943359 64.80075684 -14.59511719 64.07807617 -14.72460938 63.33349609 C-15.05035721 60.57330302 -15 57.77934839 -15 55 C-10.38 52.69 -5.76 50.38 -1 48 C-0.67 32.16 -0.34 16.32 0 0 Z " fill="#33ACD8" transform="translate(511,305)"/>
<path d="M0 0 C7.07482122 4.72154383 10.98802662 11.06624864 12.84375 19.23046875 C13.23217518 22.72326339 13.26498559 26.15663246 13.21875 29.66796875 C13.23035156 30.54517578 13.24195313 31.42238281 13.25390625 32.32617188 C13.21519499 41.08136849 11.45166806 49.30304056 5.84375 56.23046875 C0.40084947 61.5221776 -5.61812633 63.38788537 -13.03125 63.73046875 C-20.15740986 63.51452451 -25.84944164 61.44639231 -31.00390625 56.43359375 C-37.19453478 48.82839899 -38.70279224 40.39043012 -38.59375 30.79296875 C-38.58690186 29.86790527 -38.58005371 28.9428418 -38.57299805 27.98974609 C-38.41714752 21.38331794 -37.65949216 15.95358713 -34.15625 10.23046875 C-33.64771484 9.25787109 -33.64771484 9.25787109 -33.12890625 8.265625 C-26.61839836 -2.69334381 -11.11359025 -5.01524306 0 0 Z " fill="#6ACEEC" transform="translate(787.15625,590.76953125)"/>
<path d="M0 0 C1.25039063 -0.00515625 2.50078125 -0.0103125 3.7890625 -0.015625 C5.09359375 -0.00015625 6.398125 0.0153125 7.7421875 0.03125 C9.02351563 0.01578125 10.30484375 0.0003125 11.625 -0.015625 C19.66588567 0.01732945 27.93444997 0.40163558 34.25830078 5.97851562 C39.41625185 11.87225777 40.06683845 16.61945939 39.9296875 24.265625 C39.33639164 30.46556678 37.07209149 34.51758783 32.3671875 38.53125 C31.4596875 39.19125 30.5521875 39.85125 29.6171875 40.53125 C30.18266296 44.48957823 31.19224129 47.32685679 33.6171875 50.53125 C34.4421875 50.82 35.2671875 51.10875 36.1171875 51.40625 C38.6171875 52.53125 38.6171875 52.53125 40.4921875 55.84375 C41.59295139 59.45180941 42.09071002 61.09303079 40.6171875 64.53125 C37.66912818 66.39594677 35.20363299 66.87709179 31.7421875 66.96875 C30.50855469 67.02869141 30.50855469 67.02869141 29.25 67.08984375 C25.47570977 66.28906704 23.12264388 64.34786653 20.6171875 61.53125 C18.46505056 58.19470689 16.76869395 54.63676524 15.05078125 51.0625 C14.01462293 49.05703229 13.05650079 47.27155176 11.6171875 45.53125 C8.47286013 44.41994963 8.47286013 44.41994963 5.6171875 44.53125 C5.62504272 45.43218384 5.62504272 45.43218384 5.63305664 46.35131836 C5.65376764 49.05711838 5.66682875 51.76290177 5.6796875 54.46875 C5.68806641 55.41427734 5.69644531 56.35980469 5.70507812 57.33398438 C5.70991211 58.68266602 5.70991211 58.68266602 5.71484375 60.05859375 C5.72269897 61.30757446 5.72269897 61.30757446 5.73071289 62.58178711 C5.6171875 64.53125 5.6171875 64.53125 4.6171875 65.53125 C2.47410854 65.65662741 0.32639864 65.70699364 -1.8203125 65.71875 C-3.58181641 65.74001953 -3.58181641 65.74001953 -5.37890625 65.76171875 C-8.3828125 65.53125 -8.3828125 65.53125 -10.3828125 63.53125 C-10.65023804 61.07778931 -10.65023804 61.07778931 -10.67333984 57.95166016 C-10.68609955 56.78349762 -10.69885925 55.61533508 -10.71200562 54.41177368 C-10.71423126 53.14409149 -10.71645691 51.8764093 -10.71875 50.5703125 C-10.7254068 49.27306244 -10.7320636 47.97581238 -10.73892212 46.63925171 C-10.75090666 43.89032669 -10.75460183 41.14152743 -10.75341797 38.39257812 C-10.75321488 34.87274728 -10.7804996 31.35372481 -10.81496239 27.83408546 C-10.84257455 24.47531535 -10.84138061 21.1166947 -10.84375 17.7578125 C-10.85812103 16.49417877 -10.87249207 15.23054504 -10.88729858 13.92861938 C-10.88114532 12.75415253 -10.87499207 11.57968567 -10.86865234 10.36962891 C-10.87150238 9.3364151 -10.87435242 8.30320129 -10.87728882 7.23867798 C-9.7435702 1.03117848 -5.70382194 0.0227665 0 0 Z " fill="#69CDEB" transform="translate(318.3828125,588.46875)"/>
<path d="M0 0 C1.24330078 -0.01836914 1.24330078 -0.01836914 2.51171875 -0.03710938 C3.70861328 -0.04000977 3.70861328 -0.04000977 4.9296875 -0.04296875 C6.02772705 -0.04913208 6.02772705 -0.04913208 7.14794922 -0.05541992 C9.125 0.1875 9.125 0.1875 12.125 2.1875 C13.11096191 4.23440552 13.11096191 4.23440552 13.97851562 6.78564453 C14.4741803 8.21821091 14.4741803 8.21821091 14.9798584 9.67971802 C15.32681763 10.7161142 15.67377686 11.75251038 16.03125 12.8203125 C16.58020935 14.41901688 16.58020935 14.41901688 17.14025879 16.05001831 C18.31154363 19.46761867 19.46858055 22.88984434 20.625 26.3125 C21.78454236 29.71260385 22.94693788 33.11172186 24.10974121 36.51071167 C24.83246367 38.6267929 25.55272013 40.74371847 26.2701416 42.86160278 C27.73348763 47.17470951 29.21411004 51.46619125 30.85742188 55.71435547 C32.00662178 58.8631455 32.43417066 60.8896796 32.125 64.1875 C27.81232792 66.63788187 23.99472132 66.8883086 19.125 66.1875 C14.89060087 63.51314265 13.39566395 58.87547986 12.125 54.1875 C12.125 53.1975 12.125 52.2075 12.125 51.1875 C4.535 51.1875 -3.055 51.1875 -10.875 51.1875 C-11.865 54.8175 -12.855 58.4475 -13.875 62.1875 C-16.15521679 65.07130359 -17.46092469 66.00078231 -21.09375 66.48046875 C-25.30319601 66.62397259 -27.27605458 66.58679695 -30.875 64.1875 C-30.31721079 57.33248395 -28.44778174 51.36516669 -26.1640625 44.8984375 C-25.61085831 43.30535263 -25.61085831 43.30535263 -25.04647827 41.68008423 C-24.26847328 39.44491439 -23.48663104 37.21107691 -22.70117188 34.97851562 C-21.50248099 31.5695557 -20.31670314 28.15631196 -19.1328125 24.7421875 C-18.37315254 22.56484001 -17.61276059 20.38774774 -16.8515625 18.2109375 C-16.49832916 17.19518646 -16.14509583 16.17943542 -15.78115845 15.13290405 C-10.44407136 0.00804628 -10.44407136 0.00804628 0 0 Z " fill="#69CDEC" transform="translate(255.875,588.8125)"/>
<path d="M0 0 C2.30078125 1.9296875 2.30078125 1.9296875 4 4 C4.11206987 10.05177317 1.97413092 12.82206749 -2 17 C-4.72838739 16.3782657 -7.18077253 15.53632249 -9.75 14.4375 C-14.14485193 12.79555718 -17.31197033 12.39509295 -22 13 C-26.30996491 15.3170829 -28.5270194 18.39358793 -30 23 C-30.79480796 29.70041598 -30.45249573 35.48221042 -27.265625 41.4765625 C-25.09695736 44.08699577 -22.93274643 44.89686706 -19.59765625 45.265625 C-14.87011364 45.2364876 -11.35414888 44.99046806 -7 43 C-4.5625 42.4375 -4.5625 42.4375 -2 43 C1.24820563 45.74019243 3.62663539 48.54048381 4.6875 52.6875 C3.63140705 56.23981264 2.18223667 57.06569928 -1 59 C-10.28830183 63.40929173 -18.73391856 64.585797 -28.625 61.5 C-36.75692634 58.1659102 -42.27160766 53.22875961 -46 45.25 C-50.22891579 34.97138524 -50.43766994 24.71069421 -46.125 14.36328125 C-42.58012795 6.91658823 -37.00853355 0.53526634 -29.375 -2.9375 C-19.80773187 -5.94489273 -8.75386321 -4.80720624 0 0 Z " fill="#69CDEC" transform="translate(425,592)"/>
<path d="M0 0 C2.4375 2.125 2.4375 2.125 3.625 4.375 C3.3358252 8.61623037 1.27997924 11.99754212 -1.5625 15.125 C-3.58203125 15.94921875 -3.58203125 15.94921875 -5.5625 16.125 C-6.3875 15.650625 -7.2125 15.17625 -8.0625 14.6875 C-13.18783682 12.3994032 -18.03496811 12.28773009 -23.5625 13.125 C-27.0609535 15.64388652 -28.95270383 18.17683611 -30.5625 22.125 C-31.21260562 27.90791629 -31.62983872 34.05494663 -28.8125 39.3125 C-26.61658059 42.05739927 -25.7207977 42.90151531 -22.5625 44.125 C-17.13972884 44.72459096 -12.54555256 44.40296688 -7.5625 42.125 C-5.125 41.5625 -5.125 41.5625 -2.5625 42.125 C-0.08413901 44.17209167 1.78985075 46.36547556 3.4375 49.125 C3.6875 51.75 3.6875 51.75 2.4375 54.125 C-2.58688293 59.53587392 -8.64458999 61.60475828 -15.92578125 62.375 C-25.3917998 62.63658255 -33.19256181 59.97526676 -40.2578125 53.59375 C-47.82740628 45.52966014 -49.15809726 36.79185 -49.03295898 26.10131836 C-48.6845173 16.72126814 -46.11235692 9.7896106 -39.625 2.8828125 C-28.32513597 -6.74775344 -12.65914039 -7.45011611 0 0 Z " fill="#69CDEC" transform="translate(607.5625,592.875)"/>
<path d="M0 0 C1.01437637 -0.00945648 2.02875275 -0.01891296 3.0738678 -0.02865601 C4.71457497 -0.01954697 4.71457497 -0.01954697 6.38842773 -0.01025391 C8.07294289 -0.01455917 8.07294289 -0.01455917 9.79148865 -0.01895142 C12.16617334 -0.02099371 14.54087479 -0.01545236 16.91552734 -0.00292969 C20.56117122 0.01313578 24.20570886 -0.00278135 27.85131836 -0.02197266 C30.15535728 -0.01999055 32.4593955 -0.01614755 34.76342773 -0.01025391 C36.40717125 -0.01936295 36.40717125 -0.01936295 38.0841217 -0.02865601 C39.09534592 -0.01919952 40.10657013 -0.00974304 41.1484375 0 C42.04095718 0.00238678 42.93347687 0.00477356 43.8530426 0.00723267 C44.56468063 0.13294647 45.27631866 0.25866028 46.00952148 0.38818359 C48.47703388 4.08945218 48.31673304 6.01041891 48.00952148 10.38818359 C46.99215377 13.14961025 46.64781407 14.0690373 44.00952148 15.38818359 C41.12581815 15.46013228 38.26712485 15.48110067 35.38452148 15.45068359 C34.58272461 15.44617188 33.78092773 15.44166016 32.95483398 15.43701172 C30.97303142 15.42521527 28.99126715 15.40727964 27.00952148 15.38818359 C27.01396271 15.98509003 27.01840393 16.58199646 27.02297974 17.19699097 C27.06712729 23.3933473 27.09735208 29.58965917 27.11938477 35.78613281 C27.1294604 38.10060439 27.14312123 40.41506318 27.16040039 42.72949219 C27.18458013 46.05065052 27.19598879 49.371641 27.20483398 52.69287109 C27.21515656 53.73248993 27.22547913 54.77210876 27.2361145 55.8432312 C27.23634109 57.28449875 27.23634109 57.28449875 27.23657227 58.75488281 C27.24101349 59.60315643 27.24545471 60.45143005 27.25003052 61.32540894 C27.00952148 63.38818359 27.00952148 63.38818359 25.00952148 65.38818359 C22.00561523 65.61865234 22.00561523 65.61865234 18.44702148 65.57568359 C17.27010742 65.56923828 16.09319336 65.56279297 14.88061523 65.55615234 C12.00952148 65.38818359 12.00952148 65.38818359 11.00952148 64.38818359 C10.91640259 62.8839962 10.89206121 61.37547003 10.89599609 59.8684082 C10.89607162 58.90748764 10.89614716 57.94656708 10.89622498 56.95652771 C10.90138626 55.91174759 10.90654755 54.86696747 10.91186523 53.79052734 C10.91328018 52.72653214 10.91469513 51.66253693 10.91615295 50.56629944 C10.92177085 47.15273276 10.93432638 43.7392306 10.94702148 40.32568359 C10.95203418 38.01774183 10.95659748 35.70979904 10.96069336 33.40185547 C10.97174609 27.73060933 10.98850162 22.05940107 11.00952148 16.38818359 C9.80553711 16.41138672 8.60155273 16.43458984 7.36108398 16.45849609 C5.78556934 16.47725222 4.210048 16.49545259 2.63452148 16.51318359 C1.84045898 16.52994141 1.04639648 16.54669922 0.22827148 16.56396484 C-1.84539867 16.58153832 -3.91931093 16.49153527 -5.99047852 16.38818359 C-8.5923396 13.78632251 -8.28858028 12.56464005 -8.30297852 8.95068359 C-8.31973633 7.98259766 -8.33649414 7.01451172 -8.35375977 6.01708984 C-7.64212961 0.86733612 -4.82361072 0.01288783 0 0 Z " fill="#6ACDEC" transform="translate(454.990478515625,588.61181640625)"/>
<path d="M0 0 C1.77687645 1.77687645 1.13687972 4.36879254 1.14526367 6.77319336 C1.15164352 8.00794907 1.15802338 9.24270477 1.16459656 10.51487732 C1.16612512 11.87319907 1.16723914 13.23152134 1.16796875 14.58984375 C1.1711797 15.97367895 1.17454365 17.3575138 1.17805481 18.74134827 C1.18405224 21.64585151 1.18589409 24.55032498 1.18530273 27.45483398 C1.18520109 31.18202146 1.19885272 34.90901853 1.21607494 38.63616085 C1.2271778 41.49541608 1.22922247 44.35462503 1.22869301 47.21389961 C1.22987574 48.58825906 1.23431388 49.96261961 1.24202538 51.33695793 C1.25178998 53.25708452 1.24769215 55.17726662 1.24291992 57.09741211 C1.24434494 58.19137802 1.24576996 59.28534393 1.24723816 60.41246033 C1 63 1 63 -1 65 C-3.78515625 65.23046875 -3.78515625 65.23046875 -7.0625 65.1875 C-8.68865234 65.17783203 -8.68865234 65.17783203 -10.34765625 65.16796875 C-13 65 -13 65 -14 64 C-14.0928726 62.58774954 -14.11746772 61.17091066 -14.11352539 59.75561523 C-14.11344986 58.85475693 -14.11337433 57.95389862 -14.11329651 57.02574158 C-14.10813522 56.04658279 -14.10297394 55.06742401 -14.09765625 54.05859375 C-14.0962413 53.06118668 -14.09482635 52.0637796 -14.09336853 51.03614807 C-14.08775114 47.83656876 -14.07519571 44.63705831 -14.0625 41.4375 C-14.05748724 39.27408955 -14.05292395 37.11067801 -14.04882812 34.94726562 C-14.03777607 29.63148675 -14.02102104 24.31574829 -14 19 C-14.763125 19.33 -15.52625 19.66 -16.3125 20 C-19 21 -19 21 -22 21 C-23.86338343 17.27323315 -23.54785652 13.0594188 -23 9 C-18.18748818 2.85989871 -7.69863651 -1.00416998 0 0 Z " fill="#6ACEEC" transform="translate(691,589)"/>
<path d="M0 0 C0.97066406 -0.00515625 1.94132813 -0.0103125 2.94140625 -0.015625 C5.4375 0.25 5.4375 0.25 7.4375 2.25 C7.68473816 4.83753967 7.68473816 4.83753967 7.68041992 8.15258789 C7.68349655 9.39049576 7.68657318 10.62840363 7.68974304 11.90382385 C7.68284583 13.2601032 7.6755789 14.61638071 7.66796875 15.97265625 C7.66677703 17.35745704 7.66632377 18.74225865 7.6665802 20.12705994 C7.66501518 23.02982642 7.65672339 25.93246961 7.64331055 28.83520508 C7.62630479 32.56353857 7.62249664 36.29173668 7.62325573 40.02010441 C7.62298437 42.87932131 7.61750887 45.73850837 7.61025429 48.59771538 C7.60706343 49.97289237 7.60509924 51.34807275 7.60436058 52.72325325 C7.60220235 54.64111668 7.59267294 56.5589676 7.58276367 58.47680664 C7.57704597 60.11656212 7.57704597 60.11656212 7.57121277 61.78944397 C7.4375 64.25 7.4375 64.25 6.4375 65.25 C4.29442104 65.37537741 2.14671114 65.42574364 0 65.4375 C-1.76150391 65.45876953 -1.76150391 65.45876953 -3.55859375 65.48046875 C-6.5625 65.25 -6.5625 65.25 -8.5625 63.25 C-8.82319641 60.70715332 -8.82319641 60.70715332 -8.8371582 57.45507812 C-8.84669022 56.2404187 -8.85622223 55.02575928 -8.86604309 53.77429199 C-8.86513168 52.45658813 -8.86422028 51.13888428 -8.86328125 49.78125 C-8.86716664 48.42126331 -8.87150098 47.06127784 -8.87626648 45.70129395 C-8.88373311 42.84981351 -8.88343402 39.99845688 -8.87817383 37.14697266 C-8.87237462 33.48807726 -8.88931825 29.82968732 -8.9125185 26.17087555 C-8.92723022 23.36221338 -8.92813116 20.55367372 -8.92500877 17.74497986 C-8.92577371 15.73853328 -8.93966638 13.73210573 -8.95368958 11.72570801 C-8.94434639 9.90371887 -8.94434639 9.90371887 -8.93481445 8.04492188 C-8.93544388 6.97173706 -8.9360733 5.89855225 -8.9367218 4.79284668 C-8.81322861 3.95370728 -8.68973541 3.11456787 -8.5625 2.25 C-5.19898987 0.00765991 -3.93939944 -0.02098215 0 0 Z " fill="#69CDEB" transform="translate(530.5625,588.75)"/>
<path d="M0 0 C0.495 0.99 0.495 0.99 1 2 C0.2590332 4.21142578 0.2590332 4.21142578 -0.94921875 6.9453125 C-1.38556641 7.94046875 -1.82191406 8.935625 -2.27148438 9.9609375 C-2.73876953 11.00507813 -3.20605469 12.04921875 -3.6875 13.125 C-4.13544922 14.1459375 -4.58339844 15.166875 -5.04492188 16.21875 C-7.55040411 21.89346668 -10.17306496 27.47853905 -13 33 C-14.66015625 31.56770833 -16.3203125 30.13541667 -17.98046875 28.703125 C-20.28647849 26.75840499 -22.64190101 24.88104656 -25 23 C-26.86705602 26.58813303 -28.73260615 30.17704496 -30.59692383 33.76660156 C-31.53327214 35.56874654 -32.47071999 37.3703201 -33.40820312 39.171875 C-34.02350967 40.35673336 -34.6387458 41.54162828 -35.25390625 42.7265625 C-36.07870483 44.31331787 -36.07870483 44.31331787 -36.92016602 45.93212891 C-39.98859432 51.93355541 -42.98562204 57.97124409 -46 64 C-33.13 64 -20.26 64 -7 64 C-7.33 64.66 -7.66 65.32 -8 66 C-25.325 66.495 -25.325 66.495 -43 67 C-41.68 68.98 -40.36 70.96 -39 73 C-39.33 73.66 -39.66 74.32 -40 75 C-40.34289062 74.28972656 -40.68578125 73.57945312 -41.0390625 72.84765625 C-42.80517689 69.74608098 -44.36804719 67.42885724 -47 65 C-51.7123836 63.85728629 -56.17759875 63.94370738 -61 64 C-61.66 63.67 -62.32 63.34 -63 63 C-61.34234094 59.34080579 -59.09575526 56.17680987 -56.75 52.9375 C-56.31598877 52.33389648 -55.88197754 51.73029297 -55.43481445 51.10839844 C-51.14157229 45.15642064 -46.7786335 39.25556715 -42.41650391 33.35400391 C-36.21052526 24.95109865 -30.09788063 16.48154186 -24 8 C-20.81913482 9.50946511 -18.70130094 11.07941825 -16.25 13.625 C-15.63640625 14.25664062 -15.0228125 14.88828125 -14.390625 15.5390625 C-13.70226562 16.26222656 -13.70226562 16.26222656 -13 17 C-9.49302905 13.75042141 -6.90631127 10.18687827 -4.25 6.25 C-3.63318359 5.34701172 -3.63318359 5.34701172 -3.00390625 4.42578125 C-1.99876568 2.95313343 -0.99884522 1.47692498 0 0 Z " fill="#33ACD9" transform="translate(466,357)"/>
<path d="M0 0 C4.82161578 -0.67042129 9.19539794 -0.88492129 14 0 C17.1956531 2.54578079 18.97258339 5.60079091 20.94140625 9.15039062 C22.57487273 12.00443631 24.41029386 14.71999826 26.22192383 17.46313477 C30.25005717 23.57679842 34.1325112 29.78390966 38 36 C43.08938811 34.40956621 46.87456643 31.2553049 51 28 C61.39747634 49.52681388 61.39747634 49.52681388 63 56 C62.505 56.99 62.505 56.99 62 58 C59.99239214 55.21373218 57.99524047 52.42013417 56 49.625 C55.14148438 48.43390625 55.14148438 48.43390625 54.265625 47.21875 C53.72421875 46.45820313 53.1828125 45.69765625 52.625 44.9140625 C52.12226563 44.2123291 51.61953125 43.5105957 51.1015625 42.78759766 C50 41 50 41 50 39 C49.34 39 48.68 39 48 39 C47.773125 39.845625 47.54625 40.69125 47.3125 41.5625 C45.74263602 45.67404851 43.65700952 48.50393484 41 52 C36.92540731 48.08357079 33.35155008 43.90214279 29.8125 39.5 C29.24080078 38.79222412 28.66910156 38.08444824 28.08007812 37.35522461 C23.42787998 31.57571309 18.87729335 25.72575017 14.38769531 19.81884766 C12.76334706 17.68981978 11.12800512 15.56944605 9.4921875 13.44921875 C8.2864135 11.88284701 7.08068394 10.31644106 5.875 8.75 C5.29363281 7.9979126 4.71226562 7.2458252 4.11328125 6.47094727 C3.57832031 5.77412842 3.04335938 5.07730957 2.4921875 4.359375 C2.01120605 3.73514648 1.53022461 3.11091797 1.03466797 2.46777344 C0 1 0 1 0 0 Z " fill="#004B6D" transform="translate(405,421)"/>
<path d="M0 0 C3.73220803 3.24112802 5.33117036 7.17782089 6 12 C6.53424554 19.8730922 6.74083421 26.91913524 3 34 C0.56982249 36.77734572 -0.75156504 36.96386401 -4.4375 37.5 C-8.97751865 36.8628044 -10.2519245 35.61175638 -13 32 C-16.19686417 24.22021865 -16.47148655 14.25087302 -13.75 6.25 C-10.53455596 0.27846107 -6.66380575 -1.43971112 0 0 Z " fill="#015174" transform="translate(779,603)"/>
<path d="M0 0 C11.97506679 -0.4381122 11.97506679 -0.4381122 17 3 C18.52491998 6.04983996 18.23562548 8.6423369 18 12 C16.58569069 14.12146396 15.65568342 14.78778104 13.25 15.56640625 C8.886552 16.40727904 4.42635892 16.05269475 0 16 C0 10.72 0 5.44 0 0 Z " fill="#035175" transform="translate(324,602)"/>
<path d="M0 0 C3.41774116 0.64462734 5.03712251 1.69892025 7.1953125 4.4140625 C7.89521407 8.69123875 7.69873748 10.6421442 5.3203125 14.2890625 C2.55603939 17.05333561 1.76908973 17.37156048 -2.1796875 17.6640625 C-5.8046875 17.4140625 -5.8046875 17.4140625 -8.1796875 16.4765625 C-10.81518928 13.13150255 -11.08296839 9.59559898 -10.8046875 5.4140625 C-8.44323472 0.15446312 -5.35282082 -0.33565543 0 0 Z " fill="#6BCEEC" transform="translate(723.8046875,637.5859375)"/>
<path d="M0 0 C0.99 0.33 1.98 0.66 3 1 C4.04597502 3.66060688 4.90458584 6.20084839 5.6875 8.9375 C5.91244141 9.67935547 6.13738281 10.42121094 6.36914062 11.18554688 C8 16.65313925 8 16.65313925 8 19 C3.71 19 -0.58 19 -5 19 C-4.35561067 16.39546825 -3.7095496 13.7913709 -3.0625 11.1875 C-2.88009766 10.44951172 -2.69769531 9.71152344 -2.50976562 8.95117188 C-1.7577385 5.92939016 -0.98514427 2.95543282 0 0 Z " fill="#044F73" transform="translate(255,607)"/>
<path d="M0 0 C0.33 0.99 0.66 1.98 1 3 C0.01 4.98 -0.98 6.96 -2 9 C10.87 9 23.74 9 37 9 C36.67 9.66 36.34 10.32 36 11 C18.675 11.495 18.675 11.495 1 12 C2.98 14.97 2.98 14.97 5 18 C4.67 18.66 4.34 19.32 4 20 C3.48566406 18.93458984 3.48566406 18.93458984 2.9609375 17.84765625 C1.19437107 14.74528712 -0.36519439 12.4273406 -3 10 C-6.78076545 9.12104563 -10.11379483 8.99662138 -13.98828125 9.0625 C-17 9 -17 9 -19 7 C-13.54230189 6.88861841 -8.38490641 7.08342019 -3 8 C-2.690625 7.05125 -2.38125 6.1025 -2.0625 5.125 C-1 2 -1 2 0 0 Z " fill="#38B5E3" transform="translate(422,412)"/>
<path d="M0 0 C0.33 0.66 0.66 1.32 1 2 C0.13986463 4.42188287 -0.77684099 6.71765578 -1.8125 9.0625 C-2.08642578 9.71283203 -2.36035156 10.36316406 -2.64257812 11.03320312 C-4.74175664 15.87087832 -4.74175664 15.87087832 -7 17 C-7.33 16.34 -7.66 15.68 -8 15 C-8.66 14.67 -9.32 14.34 -10 14 C-6.7 9.38 -3.4 4.76 0 0 Z " fill="#38B5E2" transform="translate(466,357)"/>
<path d="M0 0 C0.66 0.33 1.32 0.66 2 1 C-0.41250331 3.44165065 -2.83071839 5.87756685 -5.25 8.3125 C-5.93191406 9.00279297 -6.61382813 9.69308594 -7.31640625 10.40429688 C-7.98027344 11.07138672 -8.64414062 11.73847656 -9.328125 12.42578125 C-9.9355957 13.03848877 -10.54306641 13.65119629 -11.16894531 14.2824707 C-13.01812207 16.0169985 -14.94492146 17.51820109 -17 19 C-17.66 18.67 -18.32 18.34 -19 18 C-12.86092974 11.75936424 -6.7116188 5.63468283 0 0 Z " fill="#38B6E3" transform="translate(615,425)"/>
<path d="M0 0 C0.33 0 0.66 0 1 0 C0.48517081 5.852795 -0.45357192 11.3297637 -2 17 C-2.84062397 13.90226756 -3.08935201 11.21667249 -3 8 C-3.99 8.495 -3.99 8.495 -5 9 C-3.75471468 5.55151758 -2.38532951 2.80016942 0 0 Z " fill="#37B5E2" transform="translate(568,429)"/>
<path d="M0 0 C5.82665994 3.80351413 11.48221873 7.76017897 17 12 C16.01 12.495 16.01 12.495 15 13 C14.31292969 12.4946875 13.62585938 11.989375 12.91796875 11.46875 C11.56638672 10.49421875 11.56638672 10.49421875 10.1875 9.5 C9.29417969 8.8503125 8.40085937 8.200625 7.48046875 7.53125 C5.06037916 5.73735342 5.06037916 5.73735342 2 6 C1.34 4.02 0.68 2.04 0 0 Z " fill="#37B5E2" transform="translate(524,434)"/>
<path d="M0 0 C3.3 0 6.6 0 10 0 C10.33 0.66 10.66 1.32 11 2 C8.69 2.33 6.38 2.66 4 3 C6.475 5.97 6.475 5.97 9 9 C8.67 9.66 8.34 10.32 8 11 C6.66375099 9.35653302 5.33107149 7.71016314 4 6.0625 C3.2575 5.14597656 2.515 4.22945313 1.75 3.28515625 C0 1 0 1 0 0 Z " fill="#004163" transform="translate(405,421)"/>
<path d="M0 0 C3.21524305 1.40844718 5.32183868 3.10344786 7.75 5.625 C8.67039062 6.57246094 8.67039062 6.57246094 9.609375 7.5390625 C10.29773438 8.26222656 10.29773438 8.26222656 11 9 C11.99 8.67 12.98 8.34 14 8 C13.67 8.99 13.34 9.98 13 11 C9.37386801 10.43040847 7.74482259 9.07625466 5.25 6.4375 C4.63640625 5.79683594 4.0228125 5.15617187 3.390625 4.49609375 C2.70226562 3.75552734 2.70226562 3.75552734 2 3 C-0.475 4.485 -0.475 4.485 -3 6 C-1.125 1.125 -1.125 1.125 0 0 Z " fill="#36B5E1" transform="translate(442,365)"/>
<path d="M0 0 C0.66 0.99 1.32 1.98 2 3 C0.63629701 5.99220268 -0.94908083 8.29026529 -3.125 10.75 C-3.93324219 11.67039062 -3.93324219 11.67039062 -4.7578125 12.609375 C-5.16773438 13.06828125 -5.57765625 13.5271875 -6 14 C-6.66 13.67 -7.32 13.34 -8 13 C-5.36 8.71 -2.72 4.42 0 0 Z " fill="#034466" transform="translate(531,395)"/>
<path d="M0 0 C2.44219959 2.29507914 4.35399474 4.73882729 6.25 7.5 C6.79140625 8.2734375 7.3328125 9.046875 7.890625 9.84375 C8.25671875 10.5553125 8.6228125 11.266875 9 12 C8.67 12.99 8.34 13.98 8 15 C5.69 11.37 3.38 7.74 1 4 C-0.98 4.99 -0.98 4.99 -3 6 C-1.125 1.125 -1.125 1.125 0 0 Z " fill="#03496B" transform="translate(455,483)"/>
<path d="M0 0 C0.99 0.33 1.98 0.66 3 1 C-2 6 -2 6 -3.6875 7.5625 C-5.2141682 9.23456517 -6.07757479 10.94228223 -7 13 C-7.74609375 11.296875 -7.74609375 11.296875 -8 9 C-6.34765625 6.640625 -6.34765625 6.640625 -4.0625 4.25 C-3.31097656 3.45078125 -2.55945313 2.6515625 -1.78515625 1.828125 C-1.19605469 1.22484375 -0.60695313 0.6215625 0 0 Z " fill="#3AB9E6" transform="translate(571,388)"/>
<path d="M0 0 C0.66 0 1.32 0 2 0 C3.38938077 1.96147874 4.7260411 3.96166576 6 6 C5.67 6.66 5.34 7.32 5 8 C3.68 6.68 2.36 5.36 1 4 C-0.32 5.32 -1.64 6.64 -3 8 C-1.125 2.25 -1.125 2.25 0 0 Z " fill="#36B5E2" transform="translate(453,460)"/>
<path d="M0 0 C1.65 0.33 3.3 0.66 5 1 C5.144375 1.7425 5.28875 2.485 5.4375 3.25 C5.90187492 5.52027739 6.41863569 7.75759479 7 10 C4.38472619 7.63379989 2.73559438 5.057952 1 2 C0.01 2.66 -0.98 3.32 -2 4 C-1.34 2.68 -0.68 1.36 0 0 Z " fill="#76DBF5" transform="translate(555,344)"/>
<path d="M0 0 C0.66 0 1.32 0 2 0 C0.64978174 4.41889613 -1.26115668 6.34345343 -5 9 C-4.42676569 5.13066838 -2.61046448 2.84777943 0 0 Z " fill="#024366" transform="translate(553,348)"/>
</svg>
